<svg width="32" height="32" viewBox="0 0 32 32" fill="none" xmlns="http://www.w3.org/2000/svg">
<rect width="3.9398" height="3.9398" rx="1.9699" transform="matrix(-0.866025 -0.5 -0.5 0.866025 6.38184 23.5986)" fill="#08F2FB"/>
<path fill-rule="evenodd" clip-rule="evenodd" d="M14.8534 4.98505C15.7956 5.52903 16.1184 6.7338 15.5744 7.67598L13.2519 11.6987C12.9113 12.2886 13.0781 13.041 13.6361 13.4316C14.5273 14.0557 14.7438 15.284 14.1198 16.1752C13.4958 17.0664 12.2675 17.283 11.3763 16.6589C10.998 16.394 10.474 16.5102 10.2431 16.9102L8.02314 20.7552C7.47917 21.6974 6.27439 22.0202 5.33221 21.4762C4.39002 20.9322 4.0672 19.7275 4.61117 18.7853L12.1625 5.70609C12.7064 4.7639 13.9112 4.44108 14.8534 4.98505Z" fill="#00B1B8"/>
<rect x="17.416" y="6.62695" width="3.9398" height="3.9398" rx="1.9699" transform="rotate(-30 17.416 6.62695)" fill="#08F2FB"/>
<rect width="3.9398" height="13.351" rx="1.9699" transform="matrix(-0.866025 -0.5 -0.5 0.866025 20.2803 15.8193)" fill="#00B1B8"/>
<path fill-rule="evenodd" clip-rule="evenodd" d="M21.748 10.191C20.8058 10.735 20.483 11.9397 21.027 12.8819L23.0669 16.4152C23.3015 16.8216 23.3015 17.3222 23.0669 17.7285L19.714 23.5361C19.17 24.4782 19.4928 25.683 20.435 26.227C21.3772 26.771 22.5819 26.4481 23.1259 25.506L24.5834 22.9816C25.0889 22.1061 26.3525 22.1061 26.858 22.9816L27.5933 24.2552C28.1373 25.1973 29.3421 25.5202 30.2843 24.9762C31.2264 24.4322 31.5493 23.2274 31.0053 22.2853L24.439 10.912C23.895 9.96985 22.6902 9.64703 21.748 10.191Z" fill="#08F2FB"/>
</svg>
